<svg height="512pt" viewBox="0 -39 512.00012 512" width="512pt" xmlns="http://www.w3.org/2000/svg"><path d="m510.195312 155.382812c-2.589843-4.742187-7.5625-7.691406-12.964843-7.691406h-37.976563v-132.921875c0-8.15625-6.613281-14.769531-14.769531-14.769531h-21.101563c-5.023437 0-9.703124 2.554688-12.421874 6.78125l-94.945313 147.695312c-2.921875 4.542969-3.128906 10.320313-.539063 15.0625 2.589844 4.742188 7.558594 7.691407 12.960938 7.691407h37.980469v132.921875c0 7.441406 5.503906 13.578125 12.65625 14.601562v35.84375c0 24.429688-19.875 44.308594-44.304688 44.308594h-157.539062c-24.429688 0-44.308594-19.878906-44.308594-44.308594v-89.828125h44.308594c3.917969 0 7.675781-1.554687 10.441406-4.324219l19.695313-19.695312c2.769531-2.769531 4.324218-6.523438 4.324218-10.441406v-83.691406h9.847656c8.15625 0 14.769532-6.613282 14.769532-14.769532s-6.613282-14.769531-14.769532-14.769531h-39.386718v-44.308594c0-8.15625-6.609375-14.769531-14.769532-14.769531-8.15625 0-14.765624 6.613281-14.765624 14.769531v44.308594h-68.925782v-44.308594c0-8.15625-6.613281-14.769531-14.769531-14.769531s-14.769531 6.613281-14.769531 14.769531v44.308594h-39.382813c-8.15625 0-14.769531 6.613281-14.769531 14.769531s6.613281 14.769532 14.769531 14.769532h9.847657v83.691406c0 3.917968 1.554687 7.671875 4.324218 10.441406l19.691406 19.695312c2.769532 2.769532 6.527344 4.324219 10.445313 4.324219h44.304687v89.828125c0 40.71875 33.128907 73.84375 73.847657 73.84375h157.539062c40.71875 0 73.847657-33.125 73.847657-73.84375v-37.101562c2.453124-1.164063 4.578124-3 6.089843-5.355469l94.949219-147.691406c2.917969-4.546875 3.125-10.324219.539062-15.066407zm-456.042968 74.804688v-77.574219h128v77.574219l-11.039063 11.042969h-105.917969zm341.804687 62.5v-130.226562c0-8.15625-6.613281-14.769532-14.769531-14.769532h-25.695312l74.222656-115.457031v130.226563c0 8.15625 6.613281 14.769531 14.769531 14.769531h25.695313zm0 0"/><path d="m152.617188 196.921875c0-8.15625-6.613282-14.769531-14.769532-14.769531h-39.386718c-8.15625 0-14.769532 6.613281-14.769532 14.769531s6.613282 14.769531 14.769532 14.769531h39.386718c8.15625 0 14.769532-6.613281 14.769532-14.769531zm0 0"/></svg>